<svg xmlns="http://www.w3.org/2000/svg" viewBox="0 0 500 700" width="500" height="700">
  <rect width="500" height="700" fill="#1a472a" rx="8" />
  <line x1="40" y1="660" x2="460" y2="660" stroke="rgba(255,255,255,0.15)" stroke-width="0.75" />
  <text x="36" y="664" fill="rgba(255,255,255,0.5)" font-family="sans-serif" font-size="10" text-anchor="end">0ft</text>
  <line x1="40" y1="592.1022997520851" x2="460" y2="592.1022997520851" stroke="rgba(255,255,255,0.15)" stroke-width="0.75" />
  <text x="36" y="596.1022997520851" fill="rgba(255,255,255,0.5)" font-family="sans-serif" font-size="10" text-anchor="end">50ft</text>
  <line x1="40" y1="524.2045995041701" x2="460" y2="524.2045995041701" stroke="rgba(255,255,255,0.15)" stroke-width="0.75" />
  <text x="36" y="528.2045995041701" fill="rgba(255,255,255,0.5)" font-family="sans-serif" font-size="10" text-anchor="end">100ft</text>
  <line x1="40" y1="456.3068992562552" x2="460" y2="456.3068992562552" stroke="rgba(255,255,255,0.15)" stroke-width="0.75" />
  <text x="36" y="460.3068992562552" fill="rgba(255,255,255,0.5)" font-family="sans-serif" font-size="10" text-anchor="end">150ft</text>
  <line x1="40" y1="388.4091990083402" x2="460" y2="388.4091990083402" stroke="rgba(255,255,255,0.15)" stroke-width="0.75" />
  <text x="36" y="392.4091990083402" fill="rgba(255,255,255,0.5)" font-family="sans-serif" font-size="10" text-anchor="end">200ft</text>
  <line x1="40" y1="320.51149876042524" x2="460" y2="320.51149876042524" stroke="rgba(255,255,255,0.15)" stroke-width="0.75" />
  <text x="36" y="324.51149876042524" fill="rgba(255,255,255,0.5)" font-family="sans-serif" font-size="10" text-anchor="end">250ft</text>
  <line x1="40" y1="252.6137985125103" x2="460" y2="252.6137985125103" stroke="rgba(255,255,255,0.15)" stroke-width="0.75" />
  <text x="36" y="256.6137985125103" fill="rgba(255,255,255,0.5)" font-family="sans-serif" font-size="10" text-anchor="end">300ft</text>
  <line x1="40" y1="184.71609826459536" x2="460" y2="184.71609826459536" stroke="rgba(255,255,255,0.15)" stroke-width="0.75" />
  <text x="36" y="188.71609826459536" fill="rgba(255,255,255,0.5)" font-family="sans-serif" font-size="10" text-anchor="end">350ft</text>
  <line x1="40" y1="116.81839801668036" x2="460" y2="116.81839801668036" stroke="rgba(255,255,255,0.15)" stroke-width="0.75" />
  <text x="36" y="120.81839801668036" fill="rgba(255,255,255,0.5)" font-family="sans-serif" font-size="10" text-anchor="end">400ft</text>
  <line x1="40" y1="48.92069776876542" x2="460" y2="48.92069776876542" stroke="rgba(255,255,255,0.15)" stroke-width="0.75" />
  <text x="36" y="52.92069776876542" fill="rgba(255,255,255,0.5)" font-family="sans-serif" font-size="10" text-anchor="end">450ft</text>
  <line x1="196.9061239428956" y1="40" x2="196.9061239428956" y2="660" stroke="rgba(255,255,255,0.15)" stroke-width="0.75" />
  <line x1="129.00842369498062" y1="40" x2="129.00842369498062" y2="660" stroke="rgba(255,255,255,0.15)" stroke-width="0.75" />
  <line x1="61.11072344706568" y1="40" x2="61.11072344706568" y2="660" stroke="rgba(255,255,255,0.15)" stroke-width="0.75" />
  <line x1="332.70152443872547" y1="40" x2="332.70152443872547" y2="660" stroke="rgba(255,255,255,0.15)" stroke-width="0.75" />
  <line x1="400.59922468664047" y1="40" x2="400.59922468664047" y2="660" stroke="rgba(255,255,255,0.15)" stroke-width="0.75" />
  <line x1="264.80382419081053" y1="40" x2="264.80382419081053" y2="660" stroke="rgba(255,255,255,0.15)" stroke-width="0.75" />
  <rect x="256.80382419081053" y="657" width="16" height="6" fill="#888" rx="1" />
  <path d="M264.8,660.0 C264.8,657.9 264.8,651.7 264.8,647.6 C264.8,643.5 264.8,639.3 264.8,635.2 C264.8,631.1 264.8,626.9 264.8,622.8 C264.8,618.7 264.8,614.5 264.8,610.4 C264.8,606.3 264.8,602.1 264.8,598.0 C264.8,593.9 264.8,589.7 264.8,585.6 C264.8,581.5 264.8,577.3 264.8,573.2 C264.8,569.1 264.9,564.9 264.9,560.8 C264.9,556.7 264.9,552.5 264.9,548.4 C264.9,544.3 264.9,540.1 264.9,536.0 C265.0,531.9 265.0,527.7 265.0,523.6 C265.0,519.5 265.0,515.3 265.1,511.2 C265.1,507.1 265.1,502.9 265.2,498.8 C265.2,494.7 265.3,490.5 265.3,486.4 C265.3,482.3 265.4,478.1 265.5,474.0 C265.5,469.9 265.6,465.7 265.6,461.6 C265.7,457.5 265.8,453.3 265.9,449.2 C266.0,445.1 266.0,440.9 266.1,436.8 C266.2,432.7 266.3,428.5 266.5,424.4 C266.6,420.3 266.7,416.1 266.8,412.0 C267.0,407.9 267.1,403.7 267.3,399.6 C267.4,395.5 267.6,391.3 267.8,387.2 C267.9,383.1 268.1,378.9 268.3,374.8 C268.5,370.7 268.7,366.5 269.0,362.4 C269.2,358.3 269.4,354.1 269.7,350.0 C270.0,345.9 270.2,341.7 270.5,337.6 C270.8,333.5 271.1,329.3 271.4,325.2 C271.8,321.1 272.1,316.9 272.5,312.8 C272.8,308.7 273.2,304.5 273.6,300.4 C274.0,296.3 274.4,292.1 274.9,288.0 C275.3,283.9 275.8,279.7 276.3,275.6 C276.8,271.5 277.3,267.3 277.8,263.2 C278.4,259.1 278.9,254.9 279.5,250.8 C280.1,246.7 280.7,242.5 281.4,238.4 C282.0,234.3 282.7,230.1 283.3,226.0 C284.0,221.9 284.5,217.7 285.1,213.6 C285.6,209.5 286.1,205.3 286.6,201.2 C287.1,197.1 287.5,192.9 287.9,188.8 C288.3,184.7 288.6,180.5 289.0,176.4 C289.3,172.3 289.6,168.1 289.9,164.0 C290.2,159.9 290.4,155.7 290.6,151.6 C290.8,147.5 291.0,143.3 291.0,139.2 C291.0,135.1 290.9,130.9 290.6,126.8 C290.2,122.7 289.8,118.5 289.0,114.4 C288.2,110.3 287.1,106.1 285.7,102.0 C284.3,97.9 282.6,93.7 280.4,89.6 C278.2,85.5 275.7,81.3 272.6,77.2 C269.5,73.1 266.0,68.9 261.9,64.8 C257.8,60.7 253.1,56.5 247.8,52.4 C242.5,48.3 233.0,42.1 230.0,40.0" fill="none" stroke="#ef5350" stroke-width="2.5" stroke-linecap="round" stroke-linejoin="round" />
  <path d="M264.8,660.0 C264.8,658.3 264.8,653.2 264.8,649.8 C264.8,646.5 264.8,643.1 264.8,639.7 C264.8,636.3 264.8,632.9 264.8,629.5 C264.8,626.2 264.8,622.8 264.8,619.4 C264.8,616.0 264.8,612.6 264.8,609.2 C264.8,605.9 264.8,602.5 264.8,599.1 C264.8,595.7 264.8,592.3 264.8,588.9 C264.8,585.6 264.8,582.2 264.8,578.8 C264.8,575.4 264.8,572.0 264.8,568.6 C264.8,565.2 264.8,561.9 264.8,558.5 C264.8,555.1 264.8,551.7 264.8,548.3 C264.8,544.9 264.8,541.6 264.8,538.2 C264.8,534.8 264.8,531.4 264.8,528.0 C264.8,524.6 264.8,521.3 264.8,517.9 C264.8,514.5 264.8,511.1 264.8,507.7 C264.8,504.3 264.8,501.0 264.8,497.6 C264.8,494.2 264.8,490.8 264.8,487.4 C264.8,484.0 264.8,480.6 264.8,477.3 C264.8,473.9 264.8,470.5 264.8,467.1 C264.8,463.7 264.8,460.3 264.8,457.0 C264.8,453.6 264.8,450.2 264.8,446.8 C264.8,443.4 264.8,440.0 264.8,436.7 C264.8,433.3 264.8,429.9 264.8,426.5 C264.8,423.1 264.8,419.7 264.8,416.4 C264.8,413.0 264.8,409.6 264.8,406.2 C264.8,402.8 264.8,399.4 264.8,396.0 C264.8,392.7 264.8,389.3 264.8,385.9 C264.8,382.5 264.8,379.1 264.8,375.7 C264.8,372.4 264.8,369.0 264.8,365.6 C264.8,362.2 264.8,358.8 264.8,355.4 C264.8,352.1 264.8,348.7 264.8,345.3 C264.8,341.9 264.8,338.5 264.8,335.1 C264.8,331.7 264.8,328.4 264.8,325.0 C264.8,321.6 264.8,318.2 264.8,314.8 C264.8,311.4 264.8,308.1 264.8,304.7 C264.8,301.3 264.8,297.9 264.8,294.5 C264.8,291.1 264.8,287.8 264.8,284.4 C264.8,281.0 264.8,277.6 264.8,274.2 C264.8,270.8 264.8,267.5 264.8,264.1 C264.8,260.7 264.8,257.3 264.8,253.9 C264.7,250.5 264.7,247.1 264.5,243.8 C264.3,240.4 264.0,237.0 263.5,233.6 C262.9,230.2 262.3,226.8 261.3,223.5 C260.3,220.1 259.1,216.7 257.5,213.3 C255.9,209.9 254.0,206.5 251.6,203.2 C249.3,199.8 246.6,196.4 243.3,193.0 C240.1,189.6 236.4,186.2 232.1,182.9 C227.8,179.5 223.0,176.1 217.5,172.7 C212.0,169.3 205.9,165.9 199.1,162.5 C192.3,159.2 180.2,154.1 176.5,152.4" fill="none" stroke="#ffa726" stroke-width="2.5" stroke-linecap="round" stroke-linejoin="round" />
  <path d="M264.8,660.0 C264.8,658.4 264.8,653.7 264.8,650.6 C264.8,647.4 264.8,644.3 264.8,641.2 C264.8,638.0 264.8,634.9 264.8,631.7 C264.8,628.6 264.8,625.5 264.8,622.3 C264.8,619.2 264.8,616.1 264.8,612.9 C264.8,609.8 264.8,606.6 264.9,603.5 C264.9,600.4 264.9,597.2 264.9,594.1 C264.9,590.9 264.9,587.8 265.0,584.7 C265.0,581.5 265.0,578.4 265.1,575.2 C265.1,572.1 265.1,569.0 265.2,565.8 C265.2,562.7 265.3,559.5 265.3,556.4 C265.4,553.3 265.5,550.1 265.6,547.0 C265.7,543.9 265.7,540.7 265.8,537.6 C266.0,534.4 266.1,531.3 266.2,528.2 C266.3,525.0 266.5,521.9 266.6,518.7 C266.8,515.6 267.0,512.5 267.2,509.3 C267.4,506.2 267.6,503.0 267.8,499.9 C268.0,496.8 268.3,493.6 268.6,490.5 C268.8,487.3 269.1,484.2 269.5,481.1 C269.8,477.9 270.1,474.8 270.5,471.7 C270.9,468.5 271.3,465.4 271.7,462.2 C272.2,459.1 272.6,456.0 273.1,452.8 C273.6,449.7 274.2,446.5 274.7,443.4 C275.3,440.3 275.9,437.1 276.5,434.0 C277.2,430.8 277.9,427.7 278.6,424.6 C279.3,421.4 280.1,418.3 280.9,415.1 C281.7,412.0 282.6,408.9 283.5,405.7 C284.4,402.6 285.4,399.5 286.4,396.3 C287.4,393.2 288.5,390.0 289.7,386.9 C290.8,383.8 292.0,380.6 293.2,377.5 C294.5,374.3 295.8,371.2 297.2,368.1 C298.5,364.9 300.0,361.8 301.4,358.6 C302.7,355.5 304.0,352.4 305.2,349.2 C306.4,346.1 307.6,342.9 308.6,339.8 C309.7,336.7 310.7,333.5 311.7,330.4 C312.6,327.3 313.5,324.1 314.3,321.0 C315.1,317.8 315.8,314.7 316.5,311.6 C317.2,308.4 317.9,305.3 318.5,302.1 C319.1,299.0 319.6,295.9 320.1,292.7 C320.6,289.6 321.1,286.4 321.5,283.3 C321.8,280.2 322.2,277.0 322.5,273.9 C322.8,270.7 323.0,267.6 323.2,264.5 C323.3,261.3 323.4,258.2 323.5,255.1 C323.5,251.9 323.5,248.8 323.5,245.6 C323.4,242.5 323.3,239.4 323.0,236.2 C322.8,233.1 322.6,229.9 322.2,226.8 C321.9,223.7 321.5,220.5 321.0,217.4 C320.5,214.2 319.9,211.1 319.3,208.0 C318.6,204.8 317.9,201.7 317.1,198.5 C316.3,195.4 314.9,190.7 314.5,189.1" fill="none" stroke="#66bb6a" stroke-width="2.5" stroke-linecap="round" stroke-linejoin="round" />
  <path d="M264.8,660.0 C264.8,658.7 264.8,654.7 264.8,652.0 C264.8,649.3 264.8,646.7 264.8,644.0 C264.8,641.3 264.8,638.6 264.8,636.0 C264.8,633.3 264.8,630.6 264.8,628.0 C264.8,625.3 264.8,622.6 264.8,620.0 C264.8,617.3 264.8,614.6 264.8,612.0 C264.8,609.3 264.8,606.6 264.8,603.9 C264.8,601.3 264.8,598.6 264.9,595.9 C264.9,593.3 264.9,590.6 264.9,587.9 C264.9,585.3 264.9,582.6 264.9,579.9 C264.9,577.3 265.0,574.6 265.0,571.9 C265.0,569.2 265.0,566.6 265.1,563.9 C265.1,561.2 265.1,558.6 265.2,555.9 C265.2,553.2 265.2,550.6 265.3,547.9 C265.3,545.2 265.4,542.6 265.4,539.9 C265.5,537.2 265.5,534.6 265.6,531.9 C265.7,529.2 265.7,526.5 265.8,523.9 C265.9,521.2 266.0,518.5 266.1,515.9 C266.2,513.2 266.3,510.5 266.4,507.9 C266.5,505.2 266.6,502.5 266.7,499.9 C266.9,497.2 267.0,494.5 267.1,491.8 C267.3,489.2 267.4,486.5 267.6,483.8 C267.8,481.2 268.0,478.5 268.2,475.8 C268.3,473.2 268.5,470.5 268.8,467.8 C269.0,465.2 269.2,462.5 269.5,459.8 C269.7,457.1 270.0,454.5 270.2,451.8 C270.5,449.1 270.8,446.5 271.1,443.8 C271.4,441.1 271.8,438.5 272.1,435.8 C272.4,433.1 272.8,430.5 273.2,427.8 C273.6,425.1 274.0,422.4 274.4,419.8 C274.8,417.1 275.3,414.4 275.7,411.8 C276.1,409.1 276.4,406.4 276.8,403.8 C277.2,401.1 277.5,398.4 277.8,395.8 C278.1,393.1 278.4,390.4 278.7,387.7 C279.0,385.1 279.3,382.4 279.5,379.7 C279.8,377.1 280.0,374.4 280.2,371.7 C280.4,369.1 280.6,366.4 280.8,363.7 C281.0,361.1 281.2,358.4 281.3,355.7 C281.5,353.1 281.6,350.4 281.8,347.7 C281.9,345.0 282.0,342.4 282.1,339.7 C282.1,337.0 282.2,334.4 282.2,331.7 C282.3,329.0 282.3,326.4 282.2,323.7 C282.2,321.0 282.1,318.4 282.0,315.7 C281.9,313.0 281.8,310.3 281.6,307.7 C281.5,305.0 281.3,302.3 281.0,299.7 C280.7,297.0 280.4,294.3 280.1,291.7 C279.7,289.0 279.3,286.3 278.9,283.7 C278.4,281.0 277.9,278.3 277.3,275.6 C276.8,273.0 276.2,270.3 275.5,267.6 C274.8,265.0 273.6,261.0 273.2,259.6" fill="none" stroke="#4fc3f7" stroke-width="2.5" stroke-linecap="round" stroke-linejoin="round" />
  <path d="M264.8,660.0 C264.8,659.2 264.8,656.6 264.8,655.0 C264.8,653.3 264.8,651.6 264.8,649.9 C264.8,648.3 264.8,646.6 264.8,644.9 C264.8,643.2 264.8,641.5 264.8,639.9 C264.8,638.2 264.8,636.5 264.8,634.8 C264.8,633.1 264.8,631.5 264.8,629.8 C264.8,628.1 264.8,626.4 264.8,624.8 C264.8,623.1 264.8,621.4 264.8,619.7 C264.8,618.0 264.8,616.4 264.8,614.7 C264.8,613.0 264.8,611.3 264.8,609.6 C264.8,608.0 264.8,606.3 264.8,604.6 C264.8,602.9 264.8,601.3 264.8,599.6 C264.8,597.9 264.8,596.2 264.8,594.5 C264.8,592.9 264.8,591.2 264.8,589.5 C264.8,587.8 264.8,586.1 264.8,584.5 C264.8,582.8 264.8,581.1 264.8,579.4 C264.8,577.8 264.8,576.1 264.8,574.4 C264.8,572.7 264.8,571.0 264.8,569.4 C264.8,567.7 264.8,566.0 264.8,564.3 C264.8,562.7 264.8,561.0 264.8,559.3 C264.8,557.6 264.8,555.9 264.8,554.3 C264.8,552.6 264.8,550.9 264.8,549.2 C264.8,547.5 264.8,545.9 264.8,544.2 C264.8,542.5 264.8,540.8 264.8,539.2 C264.8,537.5 264.8,535.8 264.8,534.1 C264.8,532.4 264.8,530.8 264.8,529.1 C264.8,527.4 264.8,525.7 264.8,524.0 C264.8,522.4 264.8,520.7 264.8,519.0 C264.8,517.3 264.8,515.7 264.8,514.0 C264.8,512.3 264.8,510.6 264.8,508.9 C264.8,507.3 264.8,505.6 264.8,503.9 C264.8,502.2 264.8,500.5 264.8,498.9 C264.8,497.2 264.8,495.5 264.8,493.8 C264.8,492.2 264.8,490.5 264.8,488.8 C264.8,487.1 264.8,485.4 264.8,483.8 C264.8,482.1 264.8,480.4 264.8,478.7 C264.8,477.1 264.8,475.4 264.8,473.7 C264.8,472.0 264.8,470.3 264.8,468.7 C264.7,467.0 264.7,465.3 264.6,463.6 C264.6,461.9 264.5,460.3 264.4,458.6 C264.3,456.9 264.1,455.2 264.0,453.6 C263.8,451.9 263.6,450.2 263.3,448.5 C263.0,446.8 262.7,445.2 262.4,443.5 C262.0,441.8 261.6,440.1 261.2,438.4 C260.7,436.8 260.2,435.1 259.6,433.4 C259.0,431.7 258.4,430.1 257.6,428.4 C256.9,426.7 256.1,425.0 255.2,423.3 C254.3,421.7 253.4,420.0 252.3,418.3 C251.3,416.6 250.1,414.9 248.9,413.3 C247.6,411.6 245.5,409.1 244.9,408.2" fill="none" stroke="#ce93d8" stroke-width="2.5" stroke-linecap="round" stroke-linejoin="round" />
  <line x1="225.9853733781927" y1="36" x2="233.9853733781927" y2="44" stroke="#ef5350" stroke-width="2" />
  <line x1="233.9853733781927" y1="36" x2="225.9853733781927" y2="44" stroke="#ef5350" stroke-width="2" />
  <text x="229.9853733781927" y="30" fill="#ef5350" font-family="sans-serif" font-size="12" text-anchor="middle">Destroyer</text>
  <line x1="172.47010016981648" y1="148.39679294658782" x2="180.47010016981648" y2="156.39679294658782" stroke="#ffa726" stroke-width="2" />
  <line x1="180.47010016981648" y1="148.39679294658782" x2="172.47010016981648" y2="156.39679294658782" stroke="#ffa726" stroke-width="2" />
  <text x="176.47010016981648" y="142.39679294658782" fill="#ffa726" font-family="sans-serif" font-size="12" text-anchor="middle">Firebird</text>
  <line x1="310.48847006032327" y1="185.13078537032982" x2="318.48847006032327" y2="193.13078537032982" stroke="#66bb6a" stroke-width="2" />
  <line x1="318.48847006032327" y1="185.13078537032982" x2="310.48847006032327" y2="193.13078537032982" stroke="#66bb6a" stroke-width="2" />
  <text x="314.48847006032327" y="179.13078537032982" fill="#66bb6a" font-family="sans-serif" font-size="12" text-anchor="middle">Leopard</text>
  <line x1="269.22122891655476" y1="255.63059708631772" x2="277.22122891655476" y2="263.6305970863177" stroke="#4fc3f7" stroke-width="2" />
  <line x1="277.22122891655476" y1="255.63059708631772" x2="269.22122891655476" y2="263.6305970863177" stroke="#4fc3f7" stroke-width="2" />
  <text x="273.22122891655476" y="249.63059708631772" fill="#4fc3f7" font-family="sans-serif" font-size="12" text-anchor="middle">Buzzz</text>
  <line x1="240.8770935128619" y1="404.23532748073137" x2="248.8770935128619" y2="412.23532748073137" stroke="#ce93d8" stroke-width="2" />
  <line x1="248.8770935128619" y1="404.23532748073137" x2="240.8770935128619" y2="412.23532748073137" stroke="#ce93d8" stroke-width="2" />
  <text x="244.8770935128619" y="398.23532748073137" fill="#ce93d8" font-family="sans-serif" font-size="12" text-anchor="middle">Berg</text>
</svg>